<svg class="main-svg" xmlns="http://www.w3.org/2000/svg" xmlns:xlink="http://www.w3.org/1999/xlink" width="1600" height="1050" style="" viewBox="0 0 1600 1050"><rect x="0" y="0" width="1600" height="1050" style="fill: rgb(13, 17, 23); fill-opacity: 1;"/><defs id="defs-64ee62"><g class="clips"><clipPath id="clip64ee62xyplot" class="plotclip"><rect width="1552" height="831"/></clipPath><clipPath class="axesclip" id="clip64ee62x"><rect x="24" y="0" width="1552" height="1050"/></clipPath><clipPath class="axesclip" id="clip64ee62y"><rect x="0" y="24" width="1600" height="831"/></clipPath><clipPath class="axesclip" id="clip64ee62xy"><rect x="24" y="24" width="1552" height="831"/></clipPath></g><g class="gradients"/><g class="patterns"/></defs><g class="bglayer"/><g class="layer-below"><g class="imagelayer"/><g class="shapelayer"/></g><g class="cartesianlayer"><g class="subplot xy"><g class="layer-subplot"><g class="shapelayer"/><g class="imagelayer"/></g><g class="minor-gridlayer"><g class="x"/><g class="y"/></g><g class="gridlayer"><g class="x"/><g class="y"/></g><g class="zerolinelayer"/><path class="xlines-below"/><path class="ylines-below"/><g class="overlines-below"/><g class="xaxislayer-below"/><g class="yaxislayer-below"/><g class="overaxes-below"/><g class="plot" transform="translate(24,24)"><g class="scatterlayer mlayer"><g class="trace scatter trace2114e9" style="stroke-miterlimit: 2; opacity: 1;"><g class="fills" clip-path="url(#clip64ee62xyplot)"/><g class="errorbars"/><g class="lines"><path class="js-line" d="M776,258.11L221.71,336.81" clip-path="url(#clip64ee62xyplot)" style="vector-effect: non-scaling-stroke; fill: none; stroke: rgb(48, 54, 61); stroke-opacity: 0.55; stroke-width: 0.6px; opacity: 1;"/><path class="js-line" d="M776,258.11L665.14,336.81" clip-path="url(#clip64ee62xyplot)" style="vector-effect: non-scaling-stroke; fill: none; stroke: rgb(48, 54, 61); stroke-opacity: 0.55; stroke-width: 0.6px; opacity: 1;"/><path class="js-line" d="M776,258.11L1108.57,336.81" clip-path="url(#clip64ee62xyplot)" style="vector-effect: non-scaling-stroke; fill: none; stroke: rgb(48, 54, 61); stroke-opacity: 0.55; stroke-width: 0.6px; opacity: 1;"/><path class="js-line" d="M1108.57,494.19L886.86,572.89" clip-path="url(#clip64ee62xyplot)" style="vector-effect: non-scaling-stroke; fill: none; stroke: rgb(48, 54, 61); stroke-opacity: 0.55; stroke-width: 0.6px; opacity: 1;"/><path class="js-line" d="M1108.57,494.19L1330.29,572.89" clip-path="url(#clip64ee62xyplot)" style="vector-effect: non-scaling-stroke; fill: none; stroke: rgb(48, 54, 61); stroke-opacity: 0.55; stroke-width: 0.6px; opacity: 1;"/></g><g class="points" clip-path="url(#clip64ee62xyplot)"/><g class="text" clip-path="url(#clip64ee62xyplot)"/></g><g class="trace scatter tracef5f9c0" style="stroke-miterlimit: 2; opacity: 1;"><g class="fills" clip-path="url(#clip64ee62xyplot)"/><g class="errorbars"/><g class="lines"><path class="js-line" d="M776,100.73L776,179.42" clip-path="url(#clip64ee62xyplot)" style="vector-effect: non-scaling-stroke; fill: none; stroke: rgb(48, 54, 61); stroke-opacity: 1; stroke-width: 1px; opacity: 1;"/><path class="js-line" d="M776,179.42L776,258.11" clip-path="url(#clip64ee62xyplot)" style="vector-effect: non-scaling-stroke; fill: none; stroke: rgb(48, 54, 61); stroke-opacity: 1; stroke-width: 1px; opacity: 1;"/><path class="js-line" d="M776,258.11L443.43,336.81" clip-path="url(#clip64ee62xyplot)" style="vector-effect: non-scaling-stroke; fill: none; stroke: rgb(48, 54, 61); stroke-opacity: 1; stroke-width: 1px; opacity: 1;"/><path class="js-line" d="M443.43,336.81L443.43,415.5" clip-path="url(#clip64ee62xyplot)" style="vector-effect: non-scaling-stroke; fill: none; stroke: rgb(48, 54, 61); stroke-opacity: 1; stroke-width: 1px; opacity: 1;"/><path class="js-line" d="M221.71,336.81L221.71,415.5" clip-path="url(#clip64ee62xyplot)" style="vector-effect: non-scaling-stroke; fill: none; stroke: rgb(48, 54, 61); stroke-opacity: 1; stroke-width: 1px; opacity: 1;"/><path class="js-line" d="M221.71,415.5L221.71,494.19" clip-path="url(#clip64ee62xyplot)" style="vector-effect: non-scaling-stroke; fill: none; stroke: rgb(48, 54, 61); stroke-opacity: 1; stroke-width: 1px; opacity: 1;"/><path class="js-line" d="M665.14,336.81L665.14,415.5" clip-path="url(#clip64ee62xyplot)" style="vector-effect: non-scaling-stroke; fill: none; stroke: rgb(48, 54, 61); stroke-opacity: 1; stroke-width: 1px; opacity: 1;"/><path class="js-line" d="M665.14,415.5L665.14,494.19" clip-path="url(#clip64ee62xyplot)" style="vector-effect: non-scaling-stroke; fill: none; stroke: rgb(48, 54, 61); stroke-opacity: 1; stroke-width: 1px; opacity: 1;"/><path class="js-line" d="M1108.57,336.81L1108.57,415.5" clip-path="url(#clip64ee62xyplot)" style="vector-effect: non-scaling-stroke; fill: none; stroke: rgb(48, 54, 61); stroke-opacity: 1; stroke-width: 1px; opacity: 1;"/><path class="js-line" d="M1108.57,415.5L1108.57,494.19" clip-path="url(#clip64ee62xyplot)" style="vector-effect: non-scaling-stroke; fill: none; stroke: rgb(48, 54, 61); stroke-opacity: 1; stroke-width: 1px; opacity: 1;"/><path class="js-line" d="M1108.57,494.19L1108.57,572.89" clip-path="url(#clip64ee62xyplot)" style="vector-effect: non-scaling-stroke; fill: none; stroke: rgb(48, 54, 61); stroke-opacity: 1; stroke-width: 1px; opacity: 1;"/><path class="js-line" d="M1108.57,572.89L1108.57,651.58" clip-path="url(#clip64ee62xyplot)" style="vector-effect: non-scaling-stroke; fill: none; stroke: rgb(48, 54, 61); stroke-opacity: 1; stroke-width: 1px; opacity: 1;"/><path class="js-line" d="M886.86,572.89L886.86,651.58" clip-path="url(#clip64ee62xyplot)" style="vector-effect: non-scaling-stroke; fill: none; stroke: rgb(48, 54, 61); stroke-opacity: 1; stroke-width: 1px; opacity: 1;"/><path class="js-line" d="M886.86,651.58L886.86,730.27" clip-path="url(#clip64ee62xyplot)" style="vector-effect: non-scaling-stroke; fill: none; stroke: rgb(48, 54, 61); stroke-opacity: 1; stroke-width: 1px; opacity: 1;"/><path class="js-line" d="M1330.29,572.89L1330.29,651.58" clip-path="url(#clip64ee62xyplot)" style="vector-effect: non-scaling-stroke; fill: none; stroke: rgb(48, 54, 61); stroke-opacity: 1; stroke-width: 1px; opacity: 1;"/><path class="js-line" d="M1330.29,651.58L1330.29,730.27" clip-path="url(#clip64ee62xyplot)" style="vector-effect: non-scaling-stroke; fill: none; stroke: rgb(48, 54, 61); stroke-opacity: 1; stroke-width: 1px; opacity: 1;"/></g><g class="points" clip-path="url(#clip64ee62xyplot)"/><g class="text" clip-path="url(#clip64ee62xyplot)"/></g><g class="trace scatter traced8f04e" style="stroke-miterlimit: 2; opacity: 1;"><g class="fills" clip-path="url(#clip64ee62xyplot)"/><g class="errorbars"/><g class="lines"/><g class="points"><path class="point plotly-customdata" transform="translate(776,100.73)" d="M24.6,0A24.6,24.6 0 1,1 0,-24.6A24.6,24.6 0 0,1 24.6,0Z" style="opacity: 0.7; stroke-width: 4.1px; fill: rgb(88, 166, 255); fill-opacity: 1; stroke: rgb(13, 17, 23); stroke-opacity: 1;"/><path class="point plotly-customdata" transform="translate(776,179.42)" d="M31.98,0L0,31.98L-31.98,0L0,-31.98Z" style="opacity: 0.7; stroke-width: 4.1px; fill: rgb(188, 140, 255); fill-opacity: 1; stroke: rgb(13, 17, 23); stroke-opacity: 1;"/><path class="point plotly-customdata" transform="translate(776,258.11)" d="M7.75,-10.64H32.75L12.5,4.06L20.25,27.86L0,13.16L-20.25,27.86L-12.5,4.06L-32.75,-10.64H-7.75L0,-34.44Z" style="opacity: 0.7; stroke-width: 4.1px; fill: rgb(255, 211, 61); fill-opacity: 1; stroke: rgb(13, 17, 23); stroke-opacity: 1;"/><path class="point plotly-customdata" transform="translate(221.71,336.81)" d="M24.6,0A24.6,24.6 0 1,1 0,-24.6A24.6,24.6 0 0,1 24.6,0Z" style="opacity: 0.7; stroke-width: 4.1px; fill: rgb(88, 166, 255); fill-opacity: 1; stroke: rgb(13, 17, 23); stroke-opacity: 1;"/><path class="point plotly-customdata" transform="translate(221.71,415.5)" d="M31.98,0L0,31.98L-31.98,0L0,-31.98Z" style="opacity: 0.7; stroke-width: 4.1px; fill: rgb(188, 140, 255); fill-opacity: 1; stroke: rgb(13, 17, 23); stroke-opacity: 1;"/><path class="point plotly-customdata" transform="translate(221.71,494.19)" d="M21.3,-12.3V12.3L0,24.6L-21.3,12.3V-12.3L0,-24.6Z" style="opacity: 0.7; stroke-width: 4.1px; fill: rgb(86, 211, 100); fill-opacity: 1; stroke: rgb(13, 17, 23); stroke-opacity: 1;"/><path class="point plotly-customdata" transform="translate(443.43,336.81)" d="M-12.3,-28.41V28.41L24.6,0Z" style="opacity: 0.7; stroke-width: 4.1px; fill: rgb(86, 212, 221); fill-opacity: 1; stroke: rgb(13, 17, 23); stroke-opacity: 1;"/><path class="point plotly-customdata" transform="translate(443.43,415.5)" d="M21.3,-12.3V12.3L0,24.6L-21.3,12.3V-12.3L0,-24.6Z" style="opacity: 0.7; stroke-width: 4.1px; fill: rgb(86, 211, 100); fill-opacity: 1; stroke: rgb(13, 17, 23); stroke-opacity: 1;"/><path class="point plotly-customdata" transform="translate(665.14,336.81)" d="M24.6,0A24.6,24.6 0 1,1 0,-24.6A24.6,24.6 0 0,1 24.6,0Z" style="opacity: 0.7; stroke-width: 4.1px; fill: rgb(88, 166, 255); fill-opacity: 1; stroke: rgb(13, 17, 23); stroke-opacity: 1;"/><path class="point plotly-customdata" transform="translate(665.14,415.5)" d="M31.98,0L0,31.98L-31.98,0L0,-31.98Z" style="opacity: 0.7; stroke-width: 4.1px; fill: rgb(188, 140, 255); fill-opacity: 1; stroke: rgb(13, 17, 23); stroke-opacity: 1;"/><path class="point plotly-customdata" transform="translate(665.14,494.19)" d="M21.3,-12.3V12.3L0,24.6L-21.3,12.3V-12.3L0,-24.6Z" style="opacity: 0.7; stroke-width: 4.1px; fill: rgb(86, 211, 100); fill-opacity: 1; stroke: rgb(13, 17, 23); stroke-opacity: 1;"/><path class="point plotly-customdata" transform="translate(1108.57,336.81)" d="M24.6,0A24.6,24.6 0 1,1 0,-24.6A24.6,24.6 0 0,1 24.6,0Z" style="opacity: 0.7; stroke-width: 4.1px; fill: rgb(88, 166, 255); fill-opacity: 1; stroke: rgb(13, 17, 23); stroke-opacity: 1;"/><path class="point plotly-customdata" transform="translate(1108.57,415.5)" d="M31.98,0L0,31.98L-31.98,0L0,-31.98Z" style="opacity: 0.7; stroke-width: 4.1px; fill: rgb(188, 140, 255); fill-opacity: 1; stroke: rgb(13, 17, 23); stroke-opacity: 1;"/><path class="point plotly-customdata" transform="translate(1108.57,494.19)" d="M7.75,-10.64H32.75L12.5,4.06L20.25,27.86L0,13.16L-20.25,27.86L-12.5,4.06L-32.75,-10.64H-7.75L0,-34.44Z" style="opacity: 0.7; stroke-width: 4.1px; fill: rgb(255, 211, 61); fill-opacity: 1; stroke: rgb(13, 17, 23); stroke-opacity: 1;"/><path class="point plotly-customdata" transform="translate(886.86,572.89)" d="M24.6,0A24.6,24.6 0 1,1 0,-24.6A24.6,24.6 0 0,1 24.6,0Z" style="opacity: 0.7; stroke-width: 4.1px; fill: rgb(88, 166, 255); fill-opacity: 1; stroke: rgb(13, 17, 23); stroke-opacity: 1;"/><path class="point plotly-customdata" transform="translate(886.86,651.58)" d="M31.98,0L0,31.98L-31.98,0L0,-31.98Z" style="opacity: 0.7; stroke-width: 4.1px; fill: rgb(188, 140, 255); fill-opacity: 1; stroke: rgb(13, 17, 23); stroke-opacity: 1;"/><path class="point plotly-customdata" transform="translate(886.86,730.27)" d="M21.3,-12.3V12.3L0,24.6L-21.3,12.3V-12.3L0,-24.6Z" style="opacity: 0.7; stroke-width: 4.1px; fill: rgb(86, 211, 100); fill-opacity: 1; stroke: rgb(13, 17, 23); stroke-opacity: 1;"/><path class="point plotly-customdata" transform="translate(1108.57,572.89)" d="M-12.3,-28.41V28.41L24.6,0Z" style="opacity: 0.7; stroke-width: 4.1px; fill: rgb(86, 212, 221); fill-opacity: 1; stroke: rgb(13, 17, 23); stroke-opacity: 1;"/><path class="point plotly-customdata" transform="translate(1108.57,651.58)" d="M21.3,-12.3V12.3L0,24.6L-21.3,12.3V-12.3L0,-24.6Z" style="opacity: 0.7; stroke-width: 4.1px; fill: rgb(86, 211, 100); fill-opacity: 1; stroke: rgb(13, 17, 23); stroke-opacity: 1;"/><path class="point plotly-customdata" transform="translate(1330.29,572.89)" d="M24.6,0A24.6,24.6 0 1,1 0,-24.6A24.6,24.6 0 0,1 24.6,0Z" style="opacity: 0.7; stroke-width: 4.1px; fill: rgb(88, 166, 255); fill-opacity: 1; stroke: rgb(13, 17, 23); stroke-opacity: 1;"/><path class="point plotly-customdata" transform="translate(1330.29,651.58)" d="M31.98,0L0,31.98L-31.98,0L0,-31.98Z" style="opacity: 0.7; stroke-width: 4.1px; fill: rgb(188, 140, 255); fill-opacity: 1; stroke: rgb(13, 17, 23); stroke-opacity: 1;"/><path class="point plotly-customdata" transform="translate(1330.29,730.27)" d="M21.3,-12.3V12.3L0,24.6L-21.3,12.3V-12.3L0,-24.6Z" style="opacity: 0.7; stroke-width: 4.1px; fill: rgb(86, 211, 100); fill-opacity: 1; stroke: rgb(13, 17, 23); stroke-opacity: 1;"/></g><g class="text"/></g><g class="trace scatter trace2accf5" style="stroke-miterlimit: 2; opacity: 1;"><g class="fills" clip-path="url(#clip64ee62xyplot)"/><g class="errorbars"/><g class="lines"/><g class="points" clip-path="url(#clip64ee62xyplot)"/><g class="text" clip-path="url(#clip64ee62xyplot)"/></g><g class="trace scatter trace6b4e1e" style="stroke-miterlimit: 2; opacity: 1;"><g class="fills" clip-path="url(#clip64ee62xyplot)"/><g class="errorbars"/><g class="lines"/><g class="points" clip-path="url(#clip64ee62xyplot)"/><g class="text" clip-path="url(#clip64ee62xyplot)"/></g><g class="trace scatter traceb15f2a" style="stroke-miterlimit: 2; opacity: 1;"><g class="fills" clip-path="url(#clip64ee62xyplot)"/><g class="errorbars"/><g class="lines"/><g class="points" clip-path="url(#clip64ee62xyplot)"/><g class="text" clip-path="url(#clip64ee62xyplot)"/></g><g class="trace scatter tracee99637" style="stroke-miterlimit: 2; opacity: 1;"><g class="fills" clip-path="url(#clip64ee62xyplot)"/><g class="errorbars"/><g class="lines"/><g class="points" clip-path="url(#clip64ee62xyplot)"/><g class="text" clip-path="url(#clip64ee62xyplot)"/></g><g class="trace scatter trace172dc1" style="stroke-miterlimit: 2; opacity: 1;"><g class="fills" clip-path="url(#clip64ee62xyplot)"/><g class="errorbars"/><g class="lines"/><g class="points" clip-path="url(#clip64ee62xyplot)"/><g class="text" clip-path="url(#clip64ee62xyplot)"/></g></g></g><g class="overplot"/><path class="xlines-above crisp" d="M0,0" style="fill: none;"/><path class="ylines-above crisp" d="M0,0" style="fill: none;"/><g class="overlines-above"/><g class="xaxislayer-above"/><g class="yaxislayer-above"/><g class="overaxes-above"/></g></g><g class="polarlayer"/><g class="smithlayer"/><g class="ternarylayer"/><g class="geolayer"/><g class="funnelarealayer"/><g class="pielayer"/><g class="iciclelayer"/><g class="treemaplayer"/><g class="sunburstlayer"/><g class="glimages"/><defs id="topdefs-64ee62"><g class="clips"/><clipPath id="legend64ee62"><rect width="519" height="37" x="0" y="0"/></clipPath></defs><g class="layer-above"><g class="imagelayer"/><g class="shapelayer"/></g><g class="infolayer"><g class="legend" pointer-events="all" transform="translate(540.5,1000.8199999999999)"><rect class="bg" shape-rendering="crispEdges" style="stroke: rgb(68, 68, 68); stroke-opacity: 1; fill: rgb(0, 0, 0); fill-opacity: 0; stroke-width: 0px;" width="519" height="37" x="0" y="0"/><g class="scrollbox" transform="" clip-path="url(#legend64ee62)"><g class="groups"><g class="traces" transform="translate(0,18.200000000000003)" style="opacity: 1;"><text class="legendtext" text-anchor="start" x="40" y="7.0200000000000005" style="font-family: 'Open Sans', verdana, arial, sans-serif; font-size: 18px; fill: rgb(139, 148, 158); fill-opacity: 1; white-space: pre;">query</text><g class="layers" style="opacity: 1;"><g class="legendfill"/><g class="legendlines"/><g class="legendsymbols"><g class="legendpoints"><path class="scatterpts" transform="translate(20,0)" d="M8,0A8,8 0 1,1 0,-8A8,8 0 0,1 8,0Z" style="opacity: 1; stroke-width: 2.05px; fill: rgb(88, 166, 255); fill-opacity: 1; stroke: rgb(13, 17, 23); stroke-opacity: 1;"/></g></g></g><rect class="legendtoggle" x="0" y="-13.200000000000001" width="94.171875" height="26.400000000000002" style="fill: rgb(0, 0, 0); fill-opacity: 0;"/></g><g class="traces" transform="translate(96.671875,18.200000000000003)" style="opacity: 1;"><text class="legendtext" text-anchor="start" x="40" y="7.0200000000000005" style="font-family: 'Open Sans', verdana, arial, sans-serif; font-size: 18px; fill: rgb(139, 148, 158); fill-opacity: 1; white-space: pre;">llm</text><g class="layers" style="opacity: 1;"><g class="legendfill"/><g class="legendlines"/><g class="legendsymbols"><g class="legendpoints"><path class="scatterpts" transform="translate(20,0)" d="M10.4,0L0,10.4L-10.4,0L0,-10.4Z" style="opacity: 1; stroke-width: 2.05px; fill: rgb(188, 140, 255); fill-opacity: 1; stroke: rgb(13, 17, 23); stroke-opacity: 1;"/></g></g></g><rect class="legendtoggle" x="0" y="-13.200000000000001" width="69.890625" height="26.400000000000002" style="fill: rgb(0, 0, 0); fill-opacity: 0;"/></g><g class="traces" transform="translate(169.0625,18.200000000000003)" style="opacity: 1;"><text class="legendtext" text-anchor="start" x="40" y="7.0200000000000005" style="font-family: 'Open Sans', verdana, arial, sans-serif; font-size: 18px; fill: rgb(139, 148, 158); fill-opacity: 1; white-space: pre;">supervising</text><g class="layers" style="opacity: 1;"><g class="legendfill"/><g class="legendlines"/><g class="legendsymbols"><g class="legendpoints"><path class="scatterpts" transform="translate(20,0)" d="M2.52,-3.46H10.65L4.07,1.32L6.59,9.06L0,4.28L-6.59,9.06L-4.07,1.32L-10.65,-3.46H-2.52L0,-11.2Z" style="opacity: 1; stroke-width: 2.05px; fill: rgb(255, 211, 61); fill-opacity: 1; stroke: rgb(13, 17, 23); stroke-opacity: 1;"/></g></g></g><rect class="legendtoggle" x="0" y="-13.200000000000001" width="145.40625" height="26.400000000000002" style="fill: rgb(0, 0, 0); fill-opacity: 0;"/></g><g class="traces" transform="translate(316.96875,18.200000000000003)" style="opacity: 1;"><text class="legendtext" text-anchor="start" x="40" y="7.0200000000000005" style="font-family: 'Open Sans', verdana, arial, sans-serif; font-size: 18px; fill: rgb(139, 148, 158); fill-opacity: 1; white-space: pre;">resume</text><g class="layers" style="opacity: 1;"><g class="legendfill"/><g class="legendlines"/><g class="legendsymbols"><g class="legendpoints"><path class="scatterpts" transform="translate(20,0)" d="M-4,-9.24V9.24L8,0Z" style="opacity: 1; stroke-width: 2.05px; fill: rgb(86, 212, 221); fill-opacity: 1; stroke: rgb(13, 17, 23); stroke-opacity: 1;"/></g></g></g><rect class="legendtoggle" x="0" y="-13.200000000000001" width="109.90625" height="26.400000000000002" style="fill: rgb(0, 0, 0); fill-opacity: 0;"/></g><g class="traces" transform="translate(429.375,18.200000000000003)" style="opacity: 1;"><text class="legendtext" text-anchor="start" x="40" y="7.0200000000000005" style="font-family: 'Open Sans', verdana, arial, sans-serif; font-size: 18px; fill: rgb(139, 148, 158); fill-opacity: 1; white-space: pre;">done</text><g class="layers" style="opacity: 1;"><g class="legendfill"/><g class="legendlines"/><g class="legendsymbols"><g class="legendpoints"><path class="scatterpts" transform="translate(20,0)" d="M6.93,-4V4L0,8L-6.93,4V-4L0,-8Z" style="opacity: 1; stroke-width: 2.05px; fill: rgb(86, 211, 100); fill-opacity: 1; stroke: rgb(13, 17, 23); stroke-opacity: 1;"/></g></g></g><rect class="legendtoggle" x="0" y="-13.200000000000001" width="86.765625" height="26.400000000000002" style="fill: rgb(0, 0, 0); fill-opacity: 0;"/></g></g></g><rect class="scrollbar" rx="20" ry="3" width="0" height="0" style="fill: rgb(128, 139, 164); fill-opacity: 1;" x="0" y="0"/></g><g class="g-gtitle"><text class="gtitle" x="0" y="12" text-anchor="start" dy="0em" style="font-family: 'Open Sans', verdana, arial, sans-serif; font-size: 21.6px; fill: rgb(230, 237, 243); opacity: 1; font-weight: normal; white-space: pre;"><tspan style="font-weight:bold">root · done_output</tspan> · 22 states · 21 edges</text></g><g class="annotation" data-index="0" style="opacity: 1;"><g class="annotation-text-g" transform="rotate(0,800,101.23)"><g class="cursor-pointer" transform="translate(774,88)"><rect class="bg" x="0.5" y="0.5" width="51" height="26" style="stroke-width: 1px; stroke: rgb(0, 0, 0); stroke-opacity: 0; fill: rgb(0, 0, 0); fill-opacity: 0;"/><text class="annotation-text" text-anchor="middle" x="25.84375" y="20.5" style="font-family: ui-monospace, SFMono-Regular, Menlo, monospace; font-size: 19.8px; fill: rgb(63, 185, 80); fill-opacity: 1; white-space: pre;">root</text></g></g></g><g class="annotation" data-index="1" style="opacity: 1;"><g class="annotation-text-g" transform="rotate(0,245.71,337.31)"><g class="cursor-pointer" transform="translate(202,324)"><rect class="bg" x="0.5" y="0.5" width="86" height="26" style="stroke-width: 1px; stroke: rgb(0, 0, 0); stroke-opacity: 0; fill: rgb(0, 0, 0); fill-opacity: 0;"/><text class="annotation-text" text-anchor="middle" x="43.71875" y="20.5" style="font-family: ui-monospace, SFMono-Regular, Menlo, monospace; font-size: 19.8px; fill: rgb(63, 185, 80); fill-opacity: 1; white-space: pre;">chunk_0</text></g></g></g><g class="annotation" data-index="2" style="opacity: 1;"><g class="annotation-text-g" transform="rotate(0,689.14,337.31)"><g class="cursor-pointer" transform="translate(646,324)"><rect class="bg" x="0.5" y="0.5" width="86" height="26" style="stroke-width: 1px; stroke: rgb(0, 0, 0); stroke-opacity: 0; fill: rgb(0, 0, 0); fill-opacity: 0;"/><text class="annotation-text" text-anchor="middle" x="43.71875" y="20.5" style="font-family: ui-monospace, SFMono-Regular, Menlo, monospace; font-size: 19.8px; fill: rgb(63, 185, 80); fill-opacity: 1; white-space: pre;">chunk_1</text></g></g></g><g class="annotation" data-index="3" style="opacity: 1;"><g class="annotation-text-g" transform="rotate(0,1132.57,337.31)"><g class="cursor-pointer" transform="translate(1089,324)"><rect class="bg" x="0.5" y="0.5" width="86" height="26" style="stroke-width: 1px; stroke: rgb(0, 0, 0); stroke-opacity: 0; fill: rgb(0, 0, 0); fill-opacity: 0;"/><text class="annotation-text" text-anchor="middle" x="43.71875" y="20.5" style="font-family: ui-monospace, SFMono-Regular, Menlo, monospace; font-size: 19.8px; fill: rgb(63, 185, 80); fill-opacity: 1; white-space: pre;">chunk_2</text></g></g></g><g class="annotation" data-index="4" style="opacity: 1;"><g class="annotation-text-g" transform="rotate(0,910.86,573.39)"><g class="cursor-pointer" transform="translate(843,560)"><rect class="bg" x="0.5" y="0.5" width="134" height="26" style="stroke-width: 1px; stroke: rgb(0, 0, 0); stroke-opacity: 0; fill: rgb(0, 0, 0); fill-opacity: 0;"/><text class="annotation-text" text-anchor="middle" x="67.546875" y="20.5" style="font-family: ui-monospace, SFMono-Regular, Menlo, monospace; font-size: 19.8px; fill: rgb(63, 185, 80); fill-opacity: 1; white-space: pre;">candidate_a</text></g></g></g><g class="annotation" data-index="5" style="opacity: 1;"><g class="annotation-text-g" transform="rotate(0,1354.29,573.39)"><g class="cursor-pointer" transform="translate(1287,560)"><rect class="bg" x="0.5" y="0.5" width="134" height="26" style="stroke-width: 1px; stroke: rgb(0, 0, 0); stroke-opacity: 0; fill: rgb(0, 0, 0); fill-opacity: 0;"/><text class="annotation-text" text-anchor="middle" x="67.546875" y="20.5" style="font-family: ui-monospace, SFMono-Regular, Menlo, monospace; font-size: 19.8px; fill: rgb(63, 185, 80); fill-opacity: 1; white-space: pre;">candidate_b</text></g></g></g></g></svg>